<svg width="155" height="45" viewBox="0 0 155 45" fill="none" xmlns="http://www.w3.org/2000/svg">
<path d="M55.2765 32.7384V14.1623H48V9.84528H67.8154V14.1623H60.5389V32.7384H55.2765Z" fill="#444252"/>
<path d="M70.2895 32.7384V15.1434H75.357V32.7384H70.2895ZM72.8233 12.6906C71.8921 12.6906 71.1341 12.418 70.5494 11.873C69.9647 11.3279 69.6723 10.652 69.6723 9.84528C69.6723 9.03857 69.9647 8.36268 70.5494 7.81761C71.1341 7.27254 71.8921 7 72.8233 7C73.7545 7 74.5125 7.26164 75.0972 7.78491C75.6819 8.28637 75.9743 8.94046 75.9743 9.74717C75.9743 10.5975 75.6819 11.3061 75.0972 11.873C74.5341 12.418 73.7762 12.6906 72.8233 12.6906Z" fill="#444252"/>
<path d="M90.6825 14.8818C92.0685 14.8818 93.3029 15.1652 94.3857 15.7321C95.4902 16.2771 96.3564 17.1275 96.9844 18.283C97.6125 19.4168 97.9265 20.8776 97.9265 22.6654V32.7384H92.8589V23.4503C92.8589 22.0331 92.5449 20.9866 91.9169 20.3107C91.3105 19.6348 90.4443 19.2969 89.3182 19.2969C88.5169 19.2969 87.7914 19.4713 87.1417 19.8201C86.5137 20.1472 86.0156 20.6595 85.6474 21.3572C85.3009 22.0549 85.1277 22.9488 85.1277 24.039V32.7384H80.0602V15.1434H84.9003V20.0164L83.9907 18.5447C84.6188 17.3673 85.5175 16.4625 86.6869 15.8302C87.8564 15.1979 89.1882 14.8818 90.6825 14.8818Z" fill="#444252"/>
<path d="M106.71 29.1409L106.84 22.927L114.994 15.1434H121.036L113.207 23.156L110.576 25.3145L106.71 29.1409ZM102.52 32.7384V8.4717H107.587V32.7384H102.52ZM115.546 32.7384L109.634 25.3472L112.817 21.3899L121.686 32.7384H115.546Z" fill="#444252"/>
<path d="M131.908 33C129.916 33 128.162 32.6075 126.646 31.8226C125.152 31.0377 123.993 29.9694 123.17 28.6176C122.347 27.244 121.936 25.6851 121.936 23.9409C121.936 22.1748 122.336 20.6159 123.138 19.2642C123.96 17.8906 125.076 16.8222 126.483 16.0591C127.891 15.2742 129.483 14.8818 131.259 14.8818C132.969 14.8818 134.507 15.2524 135.871 15.9937C137.257 16.7132 138.351 17.7597 139.152 19.1333C139.954 20.4851 140.354 22.1094 140.354 24.0063C140.354 24.2025 140.343 24.4314 140.322 24.6931C140.3 24.9329 140.278 25.1618 140.257 25.3799H126.061V22.4038H137.593L135.644 23.2868C135.644 22.3711 135.46 21.5753 135.092 20.8994C134.724 20.2235 134.215 19.7002 133.565 19.3296C132.915 18.9371 132.157 18.7409 131.291 18.7409C130.425 18.7409 129.656 18.9371 128.985 19.3296C128.335 19.7002 127.826 20.2344 127.458 20.9321C127.09 21.608 126.906 22.4147 126.906 23.3522V24.1371C126.906 25.0964 127.111 25.9468 127.523 26.6881C127.956 27.4075 128.552 27.9635 129.31 28.356C130.089 28.7266 130.999 28.9119 132.038 28.9119C132.969 28.9119 133.782 28.7702 134.475 28.4868C135.189 28.2034 135.839 27.7782 136.424 27.2113L139.12 30.1547C138.319 31.0704 137.311 31.779 136.099 32.2805C134.886 32.7602 133.489 33 131.908 33Z" fill="#444252"/>
<path d="M150.875 33C148.817 33 147.215 32.4767 146.067 31.4302C144.919 30.3618 144.345 28.7811 144.345 26.6881V11.2516H149.413V26.6226C149.413 27.3639 149.608 27.9417 149.997 28.356C150.387 28.7484 150.918 28.9447 151.589 28.9447C152.39 28.9447 153.073 28.7266 153.636 28.2906L155 31.8881C154.48 32.2587 153.852 32.5421 153.116 32.7384C152.401 32.9128 151.654 33 150.875 33ZM141.649 19.4604V15.5358H153.766V19.4604H141.649Z" fill="#444252"/>
<path fill-rule="evenodd" clip-rule="evenodd" d="M28.0089 43.6504L34.1668 32.8402L20.3675 9.66768L11.7458 9.66768L7.90016 3.20281L34.6922 3.30187L38.4664 9.66289L28.0011 9.75383L36.3933 22.7493L40.7997 9.66289L35.6502 1.11732L6.72059 1.21986L6.72059 1.21985L6.72057 1.21986L0.418707 13.0409L5.40817 21.4502L14.6715 21.4502L28.0089 43.6504Z" fill="url(#paint0_linear_97_127)"/>
<defs>
<linearGradient id="paint0_linear_97_127" x1="15.3765" y1="-0.102129" x2="7.63198" y2="30.4834" gradientUnits="userSpaceOnUse">
<stop stop-color="#DEE63B"/>
<stop offset="1" stop-color="#2BC4A6"/>
</linearGradient>
</defs>
</svg>
